<?xml version="1.0" encoding="UTF-8"?>
<svg width="346px" height="429px" viewBox="0 0 346 429" version="1.1" xmlns="http://www.w3.org/2000/svg" xmlns:xlink="http://www.w3.org/1999/xlink">
    <g id="Page-1" stroke="none" stroke-width="1" fill="none" fill-rule="evenodd">
        <g id="1ab30f436e7a63c7bfe4a22b452172d2" fill="#000000">
            <path d="M297.107747,51.392449 L230.492051,51.392449 C227.174363,22.5006122 202.684582,0 173,0 C143.315418,0 118.825637,22.5006122 115.507949,51.392449 L48.8922533,51.392449 C21.9578602,51.392449 0,73.3677551 0,100.42102 L0,102.916224 C0,123.578265 12.8342165,141.263571 30.9068887,148.442755 L30.9068887,379.971429 C30.9068887,406.980918 52.8210951,429 79.7991421,429 L266.244512,429 C293.178905,429 315.093111,407.024694 315.093111,379.971429 L315.093111,148.442755 C333.165783,141.219796 346,123.578265 346,102.916224 L346,100.42102 C345.956346,73.3677551 324.04214,51.392449 297.107747,51.392449 Z M173,23.2447959 C189.89402,23.2447959 203.950543,35.3706122 207.093616,51.392449 L138.906384,51.392449 C142.049457,35.3706122 156.10598,23.2447959 173,23.2447959 Z M291.912945,379.971429 C291.912945,394.198469 280.388342,405.755204 266.200858,405.755204 L79.7991421,405.755204 C65.6553116,405.755204 54.0870553,394.198469 54.0870553,379.971429 L54.0870553,151.90102 L291.912945,151.90102 L291.912945,379.971429 Z M322.77618,102.916224 C322.77618,117.143265 311.251577,128.7 297.064093,128.7 L48.8922533,128.7 C34.7484229,128.7 23.1801665,117.143265 23.1801665,102.916224 L23.1801665,100.42102 C23.1801665,86.1939796 34.7047691,74.6372449 48.8922533,74.6372449 L297.107747,74.6372449 C311.251577,74.6372449 322.819833,86.1939796 322.819833,100.42102 L322.77618,102.916224 Z" id="Shape" fill-rule="nonzero"></path>
            <path d="M111.500136,376 C117.879306,376 123,370.79375 123,364.40625 L123,233.59375 C123,227.1625 117.83591,222 111.500136,222 C105.164361,222 100.000272,227.20625 100.000272,233.59375 L100.000272,364.3625 C99.9568758,370.79375 105.120966,376 111.500136,376 Z" id="Path"></path>
            <path d="M173.478479,376 C179.845635,376 185,370.79375 185,364.40625 L185,233.59375 C185,227.1625 179.845635,222 173.478479,222 C167.111322,222 162.000271,227.20625 162.000271,233.59375 L162.000271,364.3625 C161.956957,370.79375 167.111322,376 173.478479,376 Z" id="Path"></path>
            <path d="M235.5,376 C241.879245,376 247,370.79375 247,364.40625 L247,233.59375 C247,227.1625 241.835849,222 235.5,222 C229.120755,222 224,227.20625 224,233.59375 L224,364.3625 C224,370.79375 229.164151,376 235.5,376 Z" id="Path"></path>
        </g>
    </g>
</svg>