<?xml version="1.0" encoding="UTF-8"?>
<svg width="382px" height="380px" viewBox="0 0 382 380" version="1.1" xmlns="http://www.w3.org/2000/svg" xmlns:xlink="http://www.w3.org/1999/xlink">
    <g id="Page-1" stroke="none" stroke-width="1" fill="none" fill-rule="evenodd">
        <g id="edit" fill="#000000">
            <path d="M370.589844,230.964844 C365.066406,230.964844 360.589844,235.441406 360.589844,240.964844 L360.589844,329.757812 C360.570312,346.316406 347.152344,359.738281 330.589844,359.757812 L50,359.757812 C33.4375,359.738281 20.019531,346.316406 20,329.757812 L20,69.167969 C20.019531,52.605469 33.4375,39.1875 50,39.167969 L138.789062,39.167969 C144.3125,39.167969 148.789062,34.691406 148.789062,29.167969 C148.789062,23.644531 144.3125,19.167969 138.789062,19.167969 L50,19.167969 C22.398438,19.199219 0.03125,41.566406 0,69.167969 L0,329.757812 C0.03125,357.359375 22.398438,379.726562 50,379.757812 L330.589844,379.757812 C358.191406,379.726562 380.558594,357.359375 380.589844,329.757812 L380.589844,240.96875 C380.589844,235.445312 376.113281,230.964844 370.589844,230.964844 Z" id="Path"></path>
            <polygon id="Path" points="156.367188 178.34375 302.378906 32.328125 349.46875 79.417969 203.457031 225.433594"></polygon>
            <polygon id="Path" points="132.542969 249.257812 184.582031 234.84375 146.957031 197.21875"></polygon>
            <path d="M362.488281,7.578125 C352.71875,-2.167969 336.902344,-2.167969 327.132812,7.578125 L316.527344,18.183594 L363.617188,65.273438 L374.222656,54.667969 C383.972656,44.898438 383.972656,29.082031 374.222656,19.3125 L362.488281,7.578125 Z" id="Path"></path>
        </g>
    </g>
</svg>